<svg xmlns="http://www.w3.org/2000/svg" xmlns:xlink="http://www.w3.org/1999/xlink" width="1080" zoomAndPan="magnify" viewBox="0 0 810 809.999993" height="1080" preserveAspectRatio="xMidYMid meet" version="1.0"><defs><clipPath id="9a99878e02"><path d="M 54 54 L 755.996094 54 L 755.996094 755.996094 L 54 755.996094 Z M 54 54 " clip-rule="nonzero"/></clipPath><clipPath id="cd24f6f43b"><path d="M 294.171875 294.171875 L 515.828125 294.171875 L 515.828125 515.828125 L 294.171875 515.828125 Z M 294.171875 294.171875 " clip-rule="nonzero"/></clipPath><clipPath id="7a26954497"><path d="M 405 294.171875 C 343.789062 294.171875 294.171875 343.789062 294.171875 405 C 294.171875 466.210938 343.789062 515.828125 405 515.828125 C 466.210938 515.828125 515.828125 466.210938 515.828125 405 C 515.828125 343.789062 466.210938 294.171875 405 294.171875 Z M 405 294.171875 " clip-rule="nonzero"/></clipPath><clipPath id="121dab6cde"><path d="M 0.171875 0.171875 L 221.828125 0.171875 L 221.828125 221.828125 L 0.171875 221.828125 Z M 0.171875 0.171875 " clip-rule="nonzero"/></clipPath><clipPath id="85128e4a09"><path d="M 111 0.171875 C 49.789062 0.171875 0.171875 49.789062 0.171875 111 C 0.171875 172.210938 49.789062 221.828125 111 221.828125 C 172.210938 221.828125 221.828125 172.210938 221.828125 111 C 221.828125 49.789062 172.210938 0.171875 111 0.171875 Z M 111 0.171875 " clip-rule="nonzero"/></clipPath><clipPath id="8e2efb02c5"><rect x="0" width="222" y="0" height="222"/></clipPath></defs><g clip-path="url(#9a99878e02)"><path fill="#d9d9d9" d="M 431.144531 579.667969 L 277.613281 733.199219 C 266.921875 743.886719 249.382812 743.933594 238.636719 733.296875 L 83.300781 579.566406 C 72.558594 568.929688 76.136719 560.230469 91.253906 560.230469 L 423.09375 560.230469 C 438.210938 560.230469 441.832031 568.976562 431.144531 579.667969 Z M 386.910156 249.773438 L 718.75 249.773438 C 733.867188 249.773438 737.445312 241.070312 726.699219 230.4375 L 571.363281 76.703125 C 560.617188 66.070312 543.078125 66.113281 532.390625 76.804688 L 378.859375 230.335938 C 368.167969 241.027344 371.792969 249.773438 386.910156 249.773438 Z M 527.558594 501.972656 L 292.910156 736.617188 C 282.21875 747.308594 285.84375 755.988281 300.960938 755.910156 L 519.507812 754.78125 C 534.625 754.699219 546.992188 742.265625 546.992188 727.148438 L 546.992188 510.023438 C 546.992188 494.902344 538.246094 491.28125 527.558594 501.972656 Z M 282.445312 308.03125 L 517.09375 73.382812 C 527.78125 62.695312 524.160156 54.011719 509.042969 54.089844 L 290.496094 55.222656 C 275.378906 55.300781 263.007812 67.734375 263.007812 82.851562 L 263.007812 299.980469 C 263.007812 315.097656 271.753906 318.722656 282.445312 308.03125 Z M 579.667969 378.859375 C 568.976562 368.167969 560.230469 371.789062 560.230469 386.910156 L 560.230469 718.75 C 560.230469 733.867188 568.929688 737.445312 579.566406 726.699219 L 733.300781 571.363281 C 743.933594 560.617188 743.886719 543.078125 733.195312 532.390625 Z M 230.335938 431.144531 C 241.027344 441.832031 249.773438 438.210938 249.773438 423.09375 L 249.773438 91.253906 C 249.773438 76.132812 241.070312 72.554688 230.4375 83.300781 L 76.703125 238.636719 C 66.070312 249.382812 66.113281 266.921875 76.804688 277.613281 Z M 754.78125 290.496094 C 754.703125 275.378906 742.269531 263.007812 727.148438 263.007812 L 510.023438 263.007812 C 494.90625 263.007812 491.28125 271.753906 501.972656 282.445312 L 736.617188 517.089844 C 747.308594 527.78125 755.988281 524.160156 755.910156 509.042969 Z M 299.980469 546.992188 C 315.097656 546.992188 318.722656 538.246094 308.03125 527.554688 L 73.382812 292.910156 C 62.695312 282.21875 54.011719 285.84375 54.089844 300.960938 L 55.222656 519.507812 C 55.300781 534.625 67.734375 546.996094 82.851562 546.996094 Z M 299.980469 546.992188 " fill-opacity="1" fill-rule="nonzero"/></g><g clip-path="url(#cd24f6f43b)"><g clip-path="url(#7a26954497)"><g transform="matrix(1, 0, 0, 1, 294, 294)"><g clip-path="url(#8e2efb02c5)"><g clip-path="url(#121dab6cde)"><g clip-path="url(#85128e4a09)"><path fill="#c1ff72" d="M 0.171875 0.171875 L 221.828125 0.171875 L 221.828125 221.828125 L 0.171875 221.828125 Z M 0.171875 0.171875 " fill-opacity="1" fill-rule="nonzero"/></g></g></g></g></g></g></svg>